<?xml version="1.0" encoding="UTF-8"?>
<!DOCTYPE svg PUBLIC "-//W3C//DTD SVG 1.1//EN" "http://www.w3.org/Graphics/SVG/1.1/DTD/svg11.dtd">
<!-- Creator: CorelDRAW -->
<svg xmlns="http://www.w3.org/2000/svg" xml:space="preserve" width="31.4995mm" height="36.1148mm" version="1.1" style="shape-rendering:geometricPrecision; text-rendering:geometricPrecision; image-rendering:optimizeQuality; fill-rule:evenodd; clip-rule:evenodd"
viewBox="0 0 3149.96 3611.49"
 xmlns:xlink="http://www.w3.org/1999/xlink"
 xmlns:xodm="http://www.corel.com/coreldraw/odm/2003">
 <defs>
  <style type="text/css">
   <![CDATA[
    .fil1 {fill:none;fill-rule:nonzero}
    .fil0 {fill:#F69007;fill-rule:nonzero}
   ]]>
  </style>
   <clipPath id="id0" style="clip-rule:nonzero">
    <path d="M1524.47 22.97l-1520.6 3070.36c-6.1,12.31 -4.95,25.4 3.29,36.72 8.2,11.27 21.12,17.52 36.18,17.52l669.49 0c0,0 185.9,0 224.22,-21.32 38.33,-21.31 68.99,-85.27 68.99,-85.27l518.57 -1080.69c6.93,-14.46 21.88,-23.31 39.41,-23.4 17.57,-0.09 32.63,8.63 39.74,22.99l534.33 1080.15c0.29,0.61 0.54,1.11 0.79,1.74 3.12,7.16 27.64,61.65 68.68,84.48 41.21,22.95 101.17,21.59 108.48,21.37 0.61,0 1.06,-0.05 1.7,-0.05l788.9 0c15.06,0 28.03,-6.32 36.22,-17.66 8.2,-11.31 9.33,-24.5 3.14,-36.78l-1542.69 -3070.36c-7.14,-14.23 -22.04,-22.81 -39.47,-22.76 -17.42,0.02 -32.27,8.67 -39.37,22.96zm600.34 3588.52l-1099.66 0c-17.93,0 -33.31,-6.26 -43.5,-17.66 -10.2,-11.43 -12.26,-24.77 -5.91,-37.76l549.82 -1119.22c7.97,-16.19 27.03,-26.4 49.41,-26.4 22.36,0 41.46,10.21 49.39,26.4l549.86 1119.22c6.35,12.99 4.29,26.33 -5.89,37.76 -10.19,11.4 -25.61,17.66 -43.52,17.66z"/>
   </clipPath>
    <clipPath id="id1">
     <path d="M1524.47 22.97l-1520.6 3070.36c-6.1,12.31 -4.95,25.4 3.29,36.72 8.2,11.27 21.12,17.52 36.18,17.52l669.49 0c0,0 185.9,0 224.22,-21.32 38.33,-21.31 68.99,-85.27 68.99,-85.27l518.57 -1080.69c6.93,-14.46 21.88,-23.31 39.41,-23.4 17.57,-0.09 32.63,8.63 39.74,22.99l534.33 1080.15c0.29,0.61 0.54,1.11 0.79,1.74 3.12,7.16 27.64,61.65 68.68,84.48 41.21,22.95 101.17,21.59 108.48,21.37 0.61,0 1.06,-0.05 1.7,-0.05l788.9 0c15.06,0 28.03,-6.32 36.22,-17.66 8.2,-11.31 9.33,-24.5 3.14,-36.78l-1542.69 -3070.36c-7.14,-14.23 -22.04,-22.81 -39.47,-22.76 -17.42,0.02 -32.27,8.67 -39.37,22.96zm600.34 3588.52l-1099.66 0c-17.93,0 -33.31,-6.26 -43.5,-17.66 -10.2,-11.43 -12.26,-24.77 -5.91,-37.76l549.82 -1119.22c7.97,-16.19 27.03,-26.4 49.41,-26.4 22.36,0 41.46,10.21 49.39,26.4l549.86 1119.22c6.35,12.99 4.29,26.33 -5.89,37.76 -10.19,11.4 -25.61,17.66 -43.52,17.66z"/>
    </clipPath>
    <clipPath id="id2">
     <path d="M1524.47 22.97l-1520.6 3070.36c-6.1,12.31 -4.95,25.4 3.29,36.72 8.2,11.27 21.12,17.52 36.18,17.52l669.49 0c0,0 185.9,0 224.22,-21.32 38.33,-21.31 68.99,-85.27 68.99,-85.27l518.57 -1080.69c6.93,-14.46 21.88,-23.31 39.41,-23.4 17.57,-0.09 32.63,8.63 39.74,22.99l534.33 1080.15c0.29,0.61 0.54,1.11 0.79,1.74 3.12,7.16 27.64,61.65 68.68,84.48 41.21,22.95 101.17,21.59 108.48,21.37 0.61,0 1.06,-0.05 1.7,-0.05l788.9 0c15.06,0 28.03,-6.32 36.22,-17.66 8.2,-11.31 9.33,-24.5 3.14,-36.78l-1542.69 -3070.36c-7.14,-14.23 -22.04,-22.81 -39.47,-22.76 -17.42,0.02 -32.27,8.67 -39.37,22.96zm600.34 3588.52l-1099.66 0c-17.93,0 -33.31,-6.26 -43.5,-17.66 -10.2,-11.43 -12.26,-24.77 -5.91,-37.76l549.82 -1119.22c7.97,-16.19 27.03,-26.4 49.41,-26.4 22.36,0 41.46,10.21 49.39,26.4l549.86 1119.22c6.35,12.99 4.29,26.33 -5.89,37.76 -10.19,11.4 -25.61,17.66 -43.52,17.66z"/>
    </clipPath>
 </defs>
 <g id="Layer_x0020_1">
  <metadata id="CorelCorpID_0Corel-Layer"/>
  <path class="fil0" d="M1524.47 22.97l-1520.6 3070.36c-6.1,12.31 -4.95,25.4 3.29,36.72 8.2,11.27 21.12,17.52 36.18,17.52l669.49 0c0,0 185.9,0 224.22,-21.32 38.33,-21.31 68.99,-85.27 68.99,-85.27l518.57 -1080.69c6.93,-14.46 21.88,-23.31 39.41,-23.4 17.57,-0.09 32.63,8.63 39.74,22.99l534.33 1080.15c0.29,0.61 0.54,1.11 0.79,1.74 3.12,7.16 27.64,61.65 68.68,84.48 41.21,22.95 101.17,21.59 108.48,21.37 0.61,0 1.06,-0.05 1.7,-0.05l788.9 0c15.06,0 28.03,-6.32 36.22,-17.66 8.2,-11.31 9.33,-24.5 3.14,-36.78l-1542.69 -3070.36c-7.14,-14.23 -22.04,-22.81 -39.47,-22.76 -17.42,0.02 -32.27,8.67 -39.37,22.96zm600.34 3588.52l-1099.66 0c-17.93,0 -33.31,-6.26 -43.5,-17.66 -10.2,-11.43 -12.26,-24.77 -5.91,-37.76l549.82 -1119.22c7.97,-16.19 27.03,-26.4 49.41,-26.4 22.36,0 41.46,10.21 49.39,26.4l549.86 1119.22c6.35,12.99 4.29,26.33 -5.89,37.76 -10.19,11.4 -25.61,17.66 -43.52,17.66z"/>
  <g style="clip-path:url(#id0)">
   <g id="_1982390626544">
   </g>
   <g style="clip-path:url(#id1)">
    <image x="-258.64" y="-4595.98" width="5276.15" height="12603.91" xlink:href="Pinaca Technologies - symbol_Images\Pinaca Technologies - symbol_ImgID1.png"/>
   </g>
   <g style="clip-path:url(#id2)">
   </g>
  </g>
  <path class="fil1" d="M1524.47 22.97l-1520.6 3070.36c-6.1,12.31 -4.95,25.4 3.29,36.72 8.2,11.27 21.12,17.52 36.18,17.52l669.49 0c0,0 185.9,0 224.22,-21.32 38.33,-21.31 68.99,-85.27 68.99,-85.27l518.57 -1080.69c6.93,-14.46 21.88,-23.31 39.41,-23.4 17.57,-0.09 32.63,8.63 39.74,22.99l534.33 1080.15c0.29,0.61 0.54,1.11 0.79,1.74 3.12,7.16 27.64,61.65 68.68,84.48 41.21,22.95 101.17,21.59 108.48,21.37 0.61,0 1.06,-0.05 1.7,-0.05l788.9 0c15.06,0 28.03,-6.32 36.22,-17.66 8.2,-11.31 9.33,-24.5 3.14,-36.78l-1542.69 -3070.36c-7.14,-14.23 -22.04,-22.81 -39.47,-22.76 -17.42,0.02 -32.27,8.67 -39.37,22.96zm600.34 3588.52l-1099.66 0c-17.93,0 -33.31,-6.26 -43.5,-17.66 -10.2,-11.43 -12.26,-24.77 -5.91,-37.76l549.82 -1119.22c7.97,-16.19 27.03,-26.4 49.41,-26.4 22.36,0 41.46,10.21 49.39,26.4l549.86 1119.22c6.35,12.99 4.29,26.33 -5.89,37.76 -10.19,11.4 -25.61,17.66 -43.52,17.66z"/>
 </g>
</svg>
